<?xml version="1.0" encoding="UTF-8"?>
<svg xmlns="http://www.w3.org/2000/svg" width="256" height="256" viewBox="0 0 256 256">
  <g transform="translate(24,6) scale(3.382)">
    
 <radialGradient id="a" cx="-122.39" cy="442.72" gradientTransform="matrix(1 0 0 -1 134.45 453.73)" gradientUnits="userSpaceOnUse" r="29.58">
  <stop offset="0" stop-color="#fff"/>
  <stop offset="1" stop-color="#007808"/>
 </radialGradient>
 <path d="m.511 12.364v-7.286l4.891 1.685v6.778z" fill="#0b4819"/>
 <path d="m4.455 42.317v-27.091l4.675.989v25.178z" fill="#0b4819"/>
 <path d="m27.321 5.066-12.015 13.78v5.864l17.82-20.093 28.225-2.185-41.517 43.274 5.527.291 30.155-30.843v29.151l-3.35 3.149 8.496.459v8.068l-26.65-2.064 13.585-13.179v-6.495l-19.422 19.222-23.256-1.798 37.303-40.117-6.139.332-26.953 29.511v-25.178l2.553-3.014-6.281.34v-6.778z" fill="#105c80"/>
 <path d="m4.455 15.226 2.704-3.255 4.524 1.23-2.553 3.014z" fill="#0b4819"/>
 <path d="m11.004 18.039 4.302.807v5.864l-4.302-.352z" fill="#084010"/>
 <path d="m15.82 47.006 4.014-1.3 5.527.291-3.647 1.349z" fill="#0c541e"/>
 <path d="m23.808 3.106 3.513 1.96-12.015 13.78-4.302-.807z" fill="#1a5c34"/>
 <path d="m11.004 24.358 19.018-21.778 3.104 2.037-17.82 20.093z" fill="#0b4819"/>
 <path d="m33.195 10.432 2.888 1.45-26.953 29.511-4.675.924z" fill="#1a5c34"/>
 <path d="m0 53.344 39.798-43.302 2.424 1.508-37.303 40.117z" fill="#0b4819"/>
 <path d="m45.597 34.677 2-.434-19.422 19.222-3.454 1.972z" fill="#1a5c34"/>
 <path d="m45.597 41.737v-7.06l2-.434v6.495z" fill="#0b4819"/>
 <path d="m30.973 55.965 14.624-14.228 2-.999-13.585 13.179z" fill="#0b4819"/>
 <path d="m54.168 45.648-3.63 3.411 1.628-1.605 3.35-3.149z" fill="#13802d"/>
 <path d="m21.714 47.346 32.454-33.446 1.348 1.254-30.155 30.843z" fill="#0b4819"/>
 <path d="m54.168 13.9 1.348 1.254v29.151l-1.348 1.343z" fill="#084010"/>
 <path d="m59.759 49.604.903-1.691v8.068l-.903 2.422z" fill="#084010"/>
 <path d="m60.507 0 .844 2.432-41.517 43.274-4.014 1.3z" fill="#1a5c34"/>
 <path d="m23.808 3.106-12.804 14.933v6.319l19.018-21.778 30.485-2.58-44.687 47.006 5.894.34 32.454-33.446v31.748l-3.63 3.411 9.221.545v8.799l-28.786-2.438 14.624-14.228v-7.06l-20.876 20.76-24.721-2.093 39.798-43.302-6.603.39-28.74 31.885v-27.091l2.704-3.255-6.648.393v-7.286z" fill="url(#a)"/>
  </g>
  <text x="242" y="236" text-anchor="end"
        font-family="Noto Sans, DejaVu Sans, sans-serif" font-weight="bold"
        font-size="82" fill="#ffffff" stroke="#000000" stroke-width="8"
        stroke-linejoin="round" paint-order="stroke">4.4</text>
</svg>
