<?xml version="1.0" encoding="UTF-8"?>
<!-- Generated by Pixelmator Pro 3.8 -->
<svg width="460" height="460" viewBox="0 0 460 460" xmlns="http://www.w3.org/2000/svg">
    <path id="Rounded-Rectangle" fill="#ffffff" fill-rule="evenodd" stroke="none" d="M 1 460 L 461 460 L 461 0 L 1 0 Z"/>
    <path id="path1" fill="#0287e6" stroke="none" d="M 211.841019 308.813293 C 204.739471 321.820679 194.213562 330.91391 181.751068 337.574646 C 154.626038 352.071991 125.449722 353.287476 95.71402 349.590637 C 80.343269 347.679657 66.062302 342.576904 52.85125 334.393524 C 33.164425 322.198792 21.696453 304.35495 17.177256 282.010559 C 15.514297 273.788361 15.292382 265.274719 14.372876 256.509949 C 35.804943 256.509949 56.204033 256.509949 76.742142 256.509949 C 77.202843 260.814789 77.586365 264.932068 78.092834 269.03418 C 79.846352 283.236664 89.200005 293.89856 102.910576 296.989838 C 115.269005 299.776276 127.769699 299.937775 140.040543 296.858856 C 144.740646 295.679565 149.60878 293.408752 153.301819 290.32132 C 162.769958 282.405853 161.26683 268.548737 150.103607 262.908875 C 141.28595 258.454041 131.868561 255.010361 122.44175 251.973694 C 102.526886 245.558548 81.87236 241.08902 62.544186 233.287155 C 35.065773 222.195465 20.531136 199.323486 22.57284 168.463989 C 24.556395 138.483398 41.44339 118.980286 67.977875 106.899231 C 93.571655 95.24646 120.132469 94.78537 147.147339 100.4422 C 165.635757 104.313599 182.136322 111.975494 195.011246 126.257263 C 206.288162 138.766418 211.094147 153.970886 212.980972 170.314087 C 213.508392 174.882507 213.678055 179.492249 214.034637 184.396912 C 193.115585 184.396912 172.855804 184.396912 152.508041 184.396912 C 151.771912 180.938354 151.159546 177.53418 150.31485 174.188599 C 147.440536 162.80423 140.582779 155.076996 129.14917 151.832947 C 117.280197 148.465393 105.478127 148.14032 94.11232 153.730499 C 88.906891 156.290741 85.451469 160.454346 84.888237 166.442383 C 84.118446 174.626404 87.583443 179.974884 95.963966 182.432983 C 115.726173 188.229462 135.575165 193.731018 155.401443 199.30777 C 172.653244 204.160385 189.358139 210.232834 202.441513 223.124039 C 217.535233 237.996048 223.073074 256.531189 221.48465 277.28833 C 220.641434 288.307373 217.919067 298.927826 211.841019 308.813293 Z"/>
    <path id="path2" fill="#5f5f5f" stroke="none" d="M 404.011047 193.283875 C 399.542633 193.283966 395.572235 193.283966 391.354675 193.283966 C 389.832031 183.272491 385.630341 175.086639 378.664886 168.163177 C 371.74118 161.28125 363.664276 156.056213 354.292389 154.323578 C 329.568268 149.752625 307.835052 155.289001 292.802521 177.203857 C 284.474213 189.345154 280.193329 203.221588 279.275757 217.917557 C 278.150726 235.936539 278.247192 253.846176 285.282593 271.03241 C 294.124329 292.631165 311.575226 308.19165 336.574951 308.969086 C 346.491486 309.277435 356.175842 308.685913 365.216644 303.866638 C 377.825134 297.145569 385.565308 286.56781 389.806335 273.245209 C 391.409668 268.20874 392.399963 262.977081 393.732697 257.579041 C 394.597137 257.46698 395.556488 257.235626 396.516174 257.234161 C 411.48584 257.211304 426.455566 257.21817 441.813385 257.21817 C 441.035339 271.384888 437.835175 284.482849 431.92038 296.871735 C 422.745392 316.089264 408.685669 330.670654 389.819611 340.597443 C 377.99408 346.819702 365.247955 349.843811 352.069763 350.9198 C 332.40979 352.525085 313.083923 350.547821 294.739197 342.974762 C 277.302917 335.776764 263.102112 324.203339 251.764603 309.091156 C 232.280548 283.120148 226.71817 253.437515 228.384293 221.828308 C 229.49559 200.7453 234.493896 180.723083 245.611954 162.580261 C 261.688446 136.346069 284.232605 118.979736 314.881897 113.119263 C 331.39212 109.962341 347.875549 109.936462 364.521576 112.81012 C 402.595245 119.382965 431.559662 147.286957 439.013733 185.262756 C 439.487152 187.674652 439.824951 190.113159 440.348907 193.283783 C 428.049774 193.283783 416.279419 193.283783 404.011047 193.283875 Z"/>
</svg>
